<?xml version="1.0" encoding="UTF-8" standalone="no"?> <!-- Created with Vectornator for iOS (http://vectornator.io/) --><!DOCTYPE svg PUBLIC "-//W3C//DTD SVG 1.1//EN" "http://www.w3.org/Graphics/SVG/1.1/DTD/svg11.dtd">
<svg height="100%" style="fill-rule:nonzero;clip-rule:evenodd;stroke-linecap:round;stroke-linejoin:round;" xmlns:xlink="http://www.w3.org/1999/xlink" xmlns="http://www.w3.org/2000/svg" xml:space="preserve" width="100%" xmlns:vectornator="http://vectornator.io" version="1.1" viewBox="0 0 1024 1024">
<metadata>
<vectornator:setting key="DimensionsVisible" value="1"/>
<vectornator:setting key="PencilOnly" value="1"/>
<vectornator:setting key="SnapToPoints" value="0"/>
<vectornator:setting key="GuidesVisible" value="0"/>
<vectornator:setting key="RulersVisible" value="1"/>
<vectornator:setting key="CMYKEnabledKey" value="0"/>
<vectornator:setting key="OutlineMode" value="0"/>
<vectornator:setting key="SnapToEdges" value="0"/>
<vectornator:setting key="DisplayWhiteBackground" value="0"/>
<vectornator:setting key="doHistoryDisabled" value="0"/>
<vectornator:setting key="SnapToGuides" value="1"/>
<vectornator:setting key="TimeLapseWatermarkDisabled" value="0"/>
<vectornator:setting key="DynamicGuides" value="0"/>
<vectornator:setting key="Units" value="Pixels"/>
<vectornator:setting key="SnapToGrid" value="0"/>
<vectornator:setting key="IsolateActiveLayer" value="0"/>
</metadata>
<defs/>
<g id="Layer 1" vectornator:layerName="Layer 1">
<g opacity="1">
<path d="M246.188+945.923C256.988+945.923+267.673+944.187+278.243+940.715C288.812+937.244+300.654+931.65+313.77+923.936L872.016+600.375C893.463+587.877+909.625+575.109+920.503+562.071C931.381+549.033+936.82+533.256+936.82+514.74C936.82+496.225+931.381+480.486+920.503+467.525C909.625+454.564+893.463+441.912+872.016+429.568L313.77+105.545C300.654+98.1387+288.812+92.6611+278.243+89.1123C267.673+85.5635+256.988+83.7891+246.188+83.7891C224.123+83.7891+205.106+91.8125+189.136+107.859C173.167+123.906+165.182+146.048+165.182+174.284L165.182+855.196C165.182+883.587+173.167+905.806+189.136+921.853C205.106+937.899+224.123+945.923+246.188+945.923Z" opacity="1" fill="#00ff7f"/>
</g>
</g>
</svg>
